<svg width="14" height="16" viewBox="0 0 14 16" fill="none" xmlns="http://www.w3.org/2000/svg">
<path d="M0.410261 14.5366C0.154351 14.8623 0.21093 15.3338 0.536634 15.5897C0.862338 15.8456 1.33383 15.7891 1.58974 15.4634L0.410261 14.5366ZM12.7447 0.91064C12.6953 0.499378 12.3219 0.205991 11.9106 0.255342L5.20872 1.05957C4.79746 1.10892 4.50407 1.48233 4.55342 1.89359C4.60278 2.30485 4.97618 2.59824 5.38744 2.54889L11.3447 1.83402L12.0596 7.79128C12.1089 8.20254 12.4823 8.49593 12.8936 8.44658C13.3049 8.39722 13.5982 8.02382 13.5489 7.61256L12.7447 0.91064ZM1.58974 15.4634L12.5897 1.46337L11.4103 0.536634L0.410261 14.5366L1.58974 15.4634Z" fill="#2CA4D9"/>
</svg>
